<?xml version="1.0" encoding="UTF-8"?>
<svg id="Layer_1" xmlns="http://www.w3.org/2000/svg" version="1.1" viewBox="0 0 1024 1024">
  <!-- Generator: Adobe Illustrator 30.3.0, SVG Export Plug-In . SVG Version: 2.1.3 Build 182)  -->
  <defs>
    <style>
      .st0 {
        fill: #fff;
      }
    </style>
  </defs>
  <g id="Group">
    <g id="Path">
      <path class="st0" d="M512.57,793.68h-.07c-1.96,0-3.93-.26-5.87-.79-1.87-.51-3.65-1.25-5.29-2.2-.14-.08-.28-.16-.42-.25l-228.17-131.73c-6.96-4.02-11.25-11.45-11.25-19.49v-265.78c0-.29,0-.59,0-.88.03-1.79.28-3.59.75-5.36.55-2.09,1.4-4.06,2.49-5.87,1.02-1.7,2.28-3.27,3.75-4.67,1.27-1.21,2.67-2.25,4.15-3.12.43-.25.87-.49,1.32-.71l228.14-119.76c6.57-3.45,14.42-3.44,20.98.03l227.55,120.35c.38.19.76.39,1.12.61,1.62.93,3.12,2.06,4.49,3.39,1.39,1.35,2.58,2.86,3.55,4.49,1.1,1.81,1.94,3.79,2.49,5.89.47,1.76.71,3.56.74,5.34,0,.28,0,.57,0,.85v266.96c0,8.08-4.33,15.53-11.34,19.54l-227.6,129.97c-.07.04-.13.08-.2.12-1.73,1.01-3.61,1.8-5.6,2.32-1.88.5-3.8.74-5.7.74ZM535.05,516.81v215.61l182.96-104.48v-215.61l-182.96,104.48ZM306.5,626.24l183.55,105.97v-215.41l-183.55-105.02v214.46ZM330.79,373.83l181.77,104,181.25-103.51-181.3-95.89-181.72,95.4Z"/>
    </g>
  </g>
</svg>