<?xml version="1.0" encoding="UTF-8"?>
<!-- Generated by Pixelmator Pro 4.0 -->
<svg width="1024" height="1024" viewBox="0 0 1024 1024" xmlns="http://www.w3.org/2000/svg">
    <g id="Group">
        <path id="Path" fill="#ffffff" fill-rule="evenodd" stroke="none" d="M 653.197998 384.375977 C 650.841003 389.052979 645.271973 391.188965 640.427002 389.275024 L 571.161011 366.914001 C 544.643005 356.438965 515.198975 355.214966 487.613007 363.438965 L 381.811005 389.980957 C 376.934998 391.434998 371.785004 389.061035 369.821991 384.452026 C 367.859009 379.843994 369.701996 374.457031 374.113007 371.911011 L 480.042999 315.752014 C 500.161987 304.135986 524.874023 304.078979 544.703979 315.603027 L 649.411011 371.454956 C 653.903992 374.06604 655.55603 379.700012 653.197998 384.375977 Z"/>
        <path id="path1" fill="#ffffff" fill-rule="evenodd" stroke="none" d="M 701.478027 455.338989 C 704.348999 459.718994 703.414001 465.609009 699.335022 468.848022 L 641.005981 515.153992 C 618.676025 532.882019 602.893005 557.768982 596.221985 585.771973 L 570.638 693.169006 C 569.458984 698.119995 564.828003 701.392029 559.85498 700.788025 C 554.882996 700.184021 551.140015 695.893982 551.140015 690.801025 L 551.140015 568.484009 C 551.140015 545.252014 563.445984 523.822021 583.341003 512.411011 L 688.393982 452.157959 C 692.901978 449.572021 698.606995 450.958984 701.478027 455.338989 Z"/>
        <path id="path2" fill="#ffffff" fill-rule="evenodd" stroke="none" d="M 324.886993 454.868042 C 327.915009 450.813965 333.489014 449.669006 337.865997 452.200012 L 442.963013 512.986023 C 462.924988 524.531006 475.127991 545.955994 474.894012 569.044983 L 473.656006 690.963989 C 473.602997 696.195984 469.53299 700.502014 464.321014 700.838989 C 459.109009 701.176025 454.519012 697.429993 453.795013 692.249023 L 443.440002 618.169006 C 439.475006 589.807983 426.056 563.622009 405.360992 543.866028 L 325.992004 468.094971 C 322.333008 464.60199 321.859009 458.921021 324.886993 454.868042 Z"/>
    </g>
</svg>
